<?xml version="1.0" encoding="utf-8"?>
<!-- Generator: Adobe Illustrator 19.0.0, SVG Export Plug-In . SVG Version: 6.00 Build 0)  -->
<svg version="1.1" id="Livetype" xmlns="http://www.w3.org/2000/svg" xmlns:xlink="http://www.w3.org/1999/xlink" x="0px" y="0px"
	 viewBox="0 0 110 40" style="enable-background:new 0 0 110 40;" xml:space="preserve">
<style type="text/css">
	.st0{fill:#A6A6A6;}
	.st1{fill:#FFFFFF;}
</style>
<g>
	<path class="st0" d="M103.4,0H6.6C6.4,0,6.1,0,5.9,0C5.7,0,5.4,0,5.2,0C4.8,0,4.3,0,3.8,0.1C3.4,0.2,2.9,0.4,2.5,0.6
		C2.1,0.8,1.7,1.1,1.4,1.4C1.1,1.7,0.8,2.1,0.6,2.5C0.4,2.9,0.2,3.4,0.1,3.8C0,4.3,0,4.8,0,5.2c0,0.2,0,0.4,0,0.6c0,0.3,0,0.5,0,0.8
		v26.8c0,0.2,0,0.5,0,0.8c0,0.2,0,0.4,0,0.6c0,0.5,0,0.9,0.1,1.4c0.1,0.5,0.2,0.9,0.4,1.3c0.2,0.4,0.5,0.8,0.8,1.1
		c0.3,0.3,0.7,0.6,1.1,0.8c0.4,0.2,0.9,0.3,1.3,0.4C4.3,40,4.8,40,5.2,40c0.2,0,0.4,0,0.6,0c0.3,0,0.5,0,0.8,0h96.7
		c0.3,0,0.5,0,0.8,0c0.2,0,0.4,0,0.6,0c0.5,0,0.9,0,1.4-0.1c0.5-0.1,0.9-0.2,1.3-0.4c0.4-0.2,0.8-0.5,1.1-0.8
		c0.3-0.3,0.6-0.7,0.8-1.1c0.2-0.4,0.4-0.9,0.4-1.3c0.1-0.5,0.1-0.9,0.1-1.4c0-0.2,0-0.4,0-0.6c0-0.2,0-0.5,0-0.8V6.6
		c0-0.3,0-0.5,0-0.8c0-0.2,0-0.4,0-0.6c0-0.5,0-0.9-0.1-1.4c-0.1-0.5-0.2-0.9-0.4-1.3c-0.2-0.4-0.5-0.8-0.8-1.1
		c-0.3-0.3-0.7-0.6-1.1-0.8c-0.4-0.2-0.9-0.4-1.3-0.4C105.7,0,105.2,0,104.8,0c-0.2,0-0.4,0-0.6,0C103.9,0,103.6,0,103.4,0L103.4,0z
		"/>
	<path d="M103.4,1l0.8,0c0.2,0,0.4,0,0.6,0c0.4,0,0.8,0,1.2,0.1c0.4,0.1,0.7,0.2,1.1,0.3c0.3,0.2,0.6,0.4,0.9,0.6
		c0.3,0.3,0.5,0.6,0.6,0.9c0.2,0.3,0.3,0.7,0.3,1c0.1,0.4,0.1,0.9,0.1,1.2c0,0.2,0,0.4,0,0.6c0,0.3,0,0.5,0,0.7v26.8
		c0,0.2,0,0.5,0,0.8c0,0.2,0,0.4,0,0.6c0,0.4,0,0.8-0.1,1.2c-0.1,0.4-0.2,0.7-0.3,1.1c-0.2,0.3-0.4,0.6-0.6,0.9
		c-0.3,0.3-0.6,0.5-0.9,0.6c-0.3,0.2-0.7,0.3-1,0.3c-0.4,0.1-0.9,0.1-1.2,0.1c-0.2,0-0.4,0-0.6,0c-0.2,0-0.5,0-0.8,0H6.6
		c0,0,0,0,0,0c-0.2,0-0.5,0-0.7,0c-0.2,0-0.4,0-0.6,0c-0.3,0-0.8,0-1.2-0.1c-0.4-0.1-0.7-0.2-1.1-0.3c-0.3-0.2-0.6-0.4-0.9-0.6
		c-0.3-0.3-0.5-0.6-0.6-0.9c-0.2-0.3-0.3-0.7-0.3-1.1C1,35.6,1,35.1,1,34.8c0-0.2,0-0.4,0-0.6l0-0.6v-0.2V6.6V6.5l0-0.6
		c0-0.2,0-0.4,0-0.6C1,4.9,1,4.4,1.1,4c0.1-0.4,0.2-0.7,0.3-1c0.2-0.3,0.4-0.6,0.6-0.9C2.3,1.8,2.6,1.6,3,1.4c0.3-0.2,0.7-0.3,1-0.3
		C4.4,1,4.9,1,5.3,1c0.2,0,0.4,0,0.6,0l0.7,0H103.4"/>
	<g>
		<g>
			<path class="st1" d="M30.1,19.8c0-3.2,2.6-4.8,2.8-4.9c-1.5-2.2-3.9-2.5-4.7-2.5c-2-0.2-3.9,1.2-4.9,1.2c-1,0-2.6-1.2-4.2-1.1
				c-2.1,0-4.1,1.3-5.2,3.2c-2.3,3.9-0.6,9.7,1.6,12.9c1.1,1.6,2.4,3.3,4,3.2c1.6-0.1,2.2-1,4.2-1c1.9,0,2.5,1,4.2,1
				c1.7,0,2.8-1.6,3.9-3.1c1.3-1.8,1.8-3.5,1.8-3.6C33.5,24.9,30.2,23.6,30.1,19.8z"/>
			<path class="st1" d="M26.9,10.3c0.9-1.1,1.5-2.6,1.3-4.1c-1.3,0.1-2.8,0.9-3.8,1.9c-0.8,0.9-1.5,2.5-1.3,3.9
				C24.6,12.2,26,11.4,26.9,10.3z"/>
		</g>
	</g>
	<g>
		<path class="st1" d="M49.5,13.1c-0.6,0.2-1.3,0.3-1.9,0.3c-1,0-1.8-0.3-2.4-0.8c-0.6-0.6-0.9-1.3-0.9-2.3c0-1,0.3-1.8,0.9-2.4
			C45.9,7.3,46.7,7,47.7,7c0.7,0,1.2,0.1,1.6,0.3l-0.2,0.8c-0.4-0.2-0.8-0.3-1.4-0.3c-0.7,0-1.3,0.2-1.7,0.6c-0.4,0.4-0.6,1-0.6,1.8
			c0,0.7,0.2,1.3,0.6,1.8c0.4,0.4,0.9,0.6,1.6,0.6c0.4,0,0.7,0,0.9-0.1v-1.7h-1.1V10h2.1V13.1z"/>
		<path class="st1" d="M54.7,10.9c0,0.2,0,0.3,0,0.5h-3c0,0.4,0.2,0.8,0.4,1c0.3,0.2,0.6,0.3,1,0.3c0.4,0,0.9-0.1,1.2-0.2l0.2,0.7
			c-0.4,0.2-0.9,0.3-1.5,0.3c-0.7,0-1.3-0.2-1.7-0.6c-0.4-0.4-0.6-1-0.6-1.7c0-0.7,0.2-1.3,0.6-1.7c0.4-0.5,0.9-0.7,1.6-0.7
			c0.7,0,1.1,0.2,1.5,0.7C54.6,9.9,54.7,10.3,54.7,10.9z M53.8,10.6c0-0.3-0.1-0.6-0.2-0.8c-0.2-0.3-0.4-0.4-0.8-0.4
			c-0.3,0-0.6,0.1-0.8,0.4c-0.2,0.2-0.3,0.5-0.3,0.8H53.8z"/>
		<path class="st1" d="M58.3,9.6h-1.1v2.2c0,0.6,0.2,0.8,0.6,0.8c0.2,0,0.3,0,0.4,0l0,0.8c-0.2,0.1-0.5,0.1-0.8,0.1
			c-0.4,0-0.7-0.1-0.9-0.4c-0.2-0.2-0.3-0.6-0.3-1.2V9.6h-0.7V8.8h0.7V8l1-0.3v1.1h1.1V9.6z"/>
		<path class="st1" d="M63.3,7.5c0,0.2-0.1,0.3-0.2,0.4C63,8,62.8,8.1,62.6,8.1c-0.2,0-0.3-0.1-0.4-0.2C62.1,7.8,62,7.7,62,7.5
			s0.1-0.3,0.2-0.4c0.1-0.1,0.3-0.2,0.4-0.2c0.2,0,0.3,0.1,0.4,0.2C63.2,7.2,63.3,7.3,63.3,7.5z M63.2,13.4h-1V8.8h1V13.4z"/>
		<path class="st1" d="M67.1,9.6H66v2.2c0,0.6,0.2,0.8,0.6,0.8c0.2,0,0.3,0,0.4,0l0,0.8c-0.2,0.1-0.5,0.1-0.8,0.1
			c-0.4,0-0.7-0.1-0.9-0.4c-0.2-0.2-0.3-0.6-0.3-1.2V9.6h-0.7V8.8H65V8l1-0.3v1.1h1.1V9.6z"/>
		<path class="st1" d="M75,11.1c0,0.7-0.2,1.3-0.6,1.7c-0.4,0.5-1,0.7-1.7,0.7c-0.7,0-1.2-0.2-1.6-0.7c-0.4-0.4-0.6-1-0.6-1.7
			c0-0.7,0.2-1.3,0.6-1.7c0.4-0.4,1-0.7,1.6-0.7c0.7,0,1.2,0.2,1.6,0.7C74.8,9.8,75,10.4,75,11.1z M74,11.1c0-0.4-0.1-0.8-0.3-1.1
			c-0.2-0.4-0.5-0.5-0.9-0.5c-0.4,0-0.7,0.2-0.9,0.5c-0.2,0.3-0.3,0.7-0.3,1.1c0,0.4,0.1,0.8,0.3,1.1c0.2,0.4,0.5,0.5,0.9,0.5
			c0.4,0,0.7-0.2,0.9-0.6C73.9,11.9,74,11.5,74,11.1z"/>
		<path class="st1" d="M80.3,13.4h-1v-2.6c0-0.8-0.3-1.2-0.9-1.2c-0.3,0-0.5,0.1-0.7,0.3c-0.2,0.2-0.3,0.5-0.3,0.8v2.7h-1v-3.2
			c0-0.4,0-0.8,0-1.3h0.9l0,0.7h0c0.1-0.2,0.3-0.4,0.5-0.5c0.3-0.2,0.6-0.3,0.9-0.3c0.4,0,0.8,0.1,1.1,0.4c0.3,0.3,0.5,0.8,0.5,1.5
			V13.4z"/>
	</g>
	<g>
		<path class="st1" d="M47,19c0,0.4-0.1,0.7-0.4,0.9c-0.3,0.2-0.6,0.4-1,0.4c-0.4,0-0.7-0.1-0.9-0.4c-0.2-0.2-0.4-0.5-0.4-0.9
			c0-0.4,0.1-0.7,0.4-0.9c0.2-0.2,0.6-0.4,0.9-0.4c0.4,0,0.7,0.1,0.9,0.4C46.9,18.4,47,18.7,47,19z M46.8,31.5h-2.1v-9.6h2.1V31.5z"
			/>
		<path class="st1" d="M58.3,20h-3.8v11.5h-2.1V20h-3.8v-1.8h9.7V20z"/>
		<path class="st1" d="M67.2,31.5h-1.9L65.2,30h0c-0.7,1.1-1.7,1.7-3,1.7c-0.9,0-1.7-0.3-2.3-0.9c-0.7-0.7-1-1.8-1-3.3v-5.6H61v5.3
			c0,1.8,0.6,2.8,1.9,2.8c0.9,0,1.6-0.5,2-1.4c0.1-0.2,0.1-0.5,0.1-0.8v-5.9h2.1v6.8C67.1,29.6,67.1,30.6,67.2,31.5z"/>
		<path class="st1" d="M78.4,31.5h-2.1V26c0-1.7-0.6-2.5-1.9-2.5c-0.6,0-1.1,0.2-1.5,0.7c-0.4,0.5-0.6,1-0.6,1.6v5.7h-2.1v-6.9
			c0-0.8,0-1.8-0.1-2.7h1.9l0.1,1.5H72c0.2-0.5,0.6-0.9,1.1-1.2c0.6-0.4,1.2-0.5,1.9-0.5c0.9,0,1.6,0.3,2.2,0.9
			c0.7,0.7,1.1,1.8,1.1,3.2V31.5z"/>
		<path class="st1" d="M89.3,26.2c0,0.4,0,0.7-0.1,1h-6.4c0,0.9,0.3,1.7,0.9,2.2c0.5,0.4,1.2,0.7,2.1,0.7c0.9,0,1.8-0.2,2.6-0.5
			l0.3,1.5c-0.9,0.4-2,0.6-3.2,0.6c-1.5,0-2.7-0.4-3.5-1.3c-0.8-0.9-1.3-2-1.3-3.5c0-1.4,0.4-2.7,1.2-3.6c0.8-1,1.9-1.5,3.4-1.5
			c1.4,0,2.4,0.5,3.1,1.5C89,24,89.3,25.1,89.3,26.2z M87.2,25.7c0-0.6-0.1-1.2-0.4-1.6c-0.4-0.6-0.9-0.9-1.7-0.9
			c-0.7,0-1.3,0.3-1.7,0.9c-0.4,0.5-0.6,1-0.6,1.7H87.2z"/>
		<path class="st1" d="M97.5,28.7c0,0.9-0.3,1.6-1,2.1c-0.7,0.5-1.6,0.8-2.7,0.8c-1.1,0-2-0.2-2.8-0.7l0.5-1.6
			c0.7,0.4,1.5,0.7,2.4,0.7c1.1,0,1.6-0.4,1.6-1.2c0-0.4-0.1-0.6-0.4-0.9c-0.2-0.2-0.7-0.5-1.3-0.7c-1.7-0.6-2.6-1.6-2.6-2.8
			c0-0.8,0.3-1.5,0.9-2.1c0.6-0.6,1.5-0.8,2.5-0.8c0.9,0,1.8,0.2,2.4,0.6l-0.5,1.5c-0.6-0.4-1.3-0.6-2-0.6c-0.4,0-0.8,0.1-1,0.3
			c-0.3,0.2-0.4,0.5-0.4,0.8c0,0.3,0.1,0.6,0.4,0.8c0.2,0.2,0.7,0.4,1.3,0.7C96.7,26.5,97.5,27.4,97.5,28.7z"/>
	</g>
</g>
</svg>
